<?xml version="1.0" standalone="no"?>
<svg version="1.0" xmlns="http://www.w3.org/2000/svg" viewBox="0 0 256.000000 256.000000" preserveAspectRatio="xMidYMid meet">
 <g transform="translate(0.000000,256.000000) scale(0.100000,-0.100000)" stroke="none">
  <path d="M1260 2271 c0 -244 -2 -290 -15 -301 -17 -14 -20 -61 -5 -76 7 -7 -14 -23 -67 -49 -206 -101 -348 -342 -369 -623 -16 -226 88 -408 293 -509 73 -36 83 -38 188 -42 81 -2 125 1 165 13 87 26 94 24 86 -26 -9 -55 -47 -139 -85 -187 -16 -20 -53 -50 -82 -65 -47 -26 -58 -28 -118 -22 -128 11 -234 86 -261 182 -8 26 -25 55 -42 69 -29 25 -200 85 -241 85 -53 0 -71 -42 -56 -129 44 -239 325 -430 659 -448 170 -9 286 31 390 136 68 67 97 126 178 356 104 297 295 888 300 931 4 36 1 44 -20 58 -32 21 -157 63 -211 71 -41 6 -45 5 -71 -29 -15 -20 -31 -36 -36 -36 -4 0 -29 29 -54 64 -57 80 -107 120 -199 159 -60 25 -89 31 -173 35 l-101 5 -6 56 c-10 96 16 156 64 146 36 -8 67 31 49 64 -16 31 -55 27 -82 -9 -20 -27 -23 -29 -30 -13 -3 10 -7 109 -7 221 -1 195 -2 202 -21 202 -20 0 -20 -7 -20 -289z m0 -501 c0 -5 9 -10 20 -10 11 0 20 5 20 10 0 20 21 9 30 -16 19 -50 -32 -98 -75 -70 -29 19 -39 49 -25 76 11 21 30 27 30 10z m320 -191 c140 -61 188 -219 126 -415 -55 -171 -157 -264 -291 -264 -115 0 -219 68 -251 163 -22 66 -14 208 16 295 40 115 138 222 222 243 45 11 124 1 178 -22z"/>
 </g>
</svg>
